<svg width="71" height="68" viewBox="0 0 71 68" fill="none" xmlns="http://www.w3.org/2000/svg">
<g id="Aveji &#208;&#154;&#208;&#190;&#208;&#191;&#208;&#184;&#209;&#143; &#208;&#155;&#208;&#158;&#208;&#147;&#208;&#158; 1" clip-path="url(#clip0_1_204)">
<g id="Clip path group">
<mask id="mask0_1_204" style="mask-type:luminance" maskUnits="userSpaceOnUse" x="0" y="0" width="71" height="68">
<g id="clip0_801_5">
<path id="Vector" d="M70.5688 0.268494H0V68H70.5688V0.268494Z" fill="white"/>
</g>
</mask>
<g mask="url(#mask0_1_204)">
<g id="Group">
<path id="Vector_2" d="M43.7668 66.7987C43.6328 66.7987 43.5659 66.8603 43.5659 66.9836V67.1684C43.5659 67.2916 43.6328 67.3532 43.7668 67.3532H70.2676C70.4684 67.3532 70.5688 67.2916 70.5688 67.1684V66.9836C70.5688 66.8603 70.4684 66.7987 70.2676 66.7987H67.1558C65.0813 66.7987 63.609 66.4599 62.7389 65.7823C61.9358 65.1046 61.2666 63.9959 60.7313 62.4559C57.3851 52.9691 54.2734 43.4823 51.3958 33.9957C48.5181 24.509 45.674 14.9606 42.8633 5.35066C42.4617 4.05702 42.4617 2.97898 42.8633 2.11655C43.2649 1.25413 44.2017 0.822912 45.674 0.822912H51.697C51.8977 0.822912 51.998 0.730506 51.998 0.545699V0.453297C51.998 0.330095 51.8977 0.268494 51.697 0.268494H11.544C11.2763 0.268494 11.1424 0.330095 11.1424 0.453297V0.545699C11.1424 0.730506 11.2763 0.822912 11.544 0.822912H18.9723C20.3107 0.822912 20.9799 1.37733 20.9799 2.48617C20.9799 2.97898 20.913 3.47181 20.7791 3.96462C20.6453 4.39583 20.4111 5.04266 20.0765 5.90508C19.4742 7.32194 18.7381 9.01599 17.868 10.9873C17.065 12.8969 16.2285 14.8682 15.3585 16.9011C14.4885 18.934 13.652 20.9052 12.8489 22.8149C12.0459 24.7246 11.3432 26.3879 10.7409 27.8046C9.4694 30.8231 8.16443 33.7801 6.826 36.6753C5.55448 39.5707 4.41681 42.3427 3.413 44.9916C2.40918 47.579 1.57266 50.0429 0.90344 52.3839C0.301146 54.6632 0 56.7577 0 58.6672C0 61.9322 0.86998 64.3038 2.60994 65.7823C4.34989 67.2608 6.52486 68 9.13478 68C11.2763 68 13.217 67.4764 14.957 66.4291C16.6969 65.3203 18.3365 63.9651 19.8758 62.3635C21.4818 60.7002 22.9875 58.9445 24.3929 57.0964C25.8652 55.1868 27.3709 53.4311 28.9101 51.8294C30.4492 50.1661 32.0554 48.811 33.7284 47.7638C35.4684 46.6549 37.3422 46.1005 39.3498 46.1005C42.5621 46.1005 45.0382 46.9629 46.7781 48.6878C48.5181 50.4125 49.7897 52.3839 50.5926 54.6016C51.1281 55.9569 51.5297 57.2504 51.7973 58.4824C52.1319 59.7145 52.4665 60.8234 52.8011 61.809C52.935 62.3635 52.9684 62.9487 52.9014 63.5647C52.9014 64.1808 52.7008 64.735 52.2992 65.2279C51.9646 65.6591 51.3624 66.0287 50.4923 66.3367C49.6892 66.6447 48.585 66.7987 47.1797 66.7987H43.7668ZM17.065 29.2831C20.8796 29.2831 23.6567 30.0839 25.3967 31.6856C27.1366 33.2257 28.0067 35.7513 28.0067 39.2627V48.8726C26.5344 49.8581 25.0956 50.9054 23.6903 52.0142C22.2849 53.1231 20.913 54.1396 19.5746 55.0636C18.2362 55.9877 16.9312 56.7575 15.6596 57.3736C14.3881 57.928 13.1166 58.2052 11.8451 58.2052C9.97132 58.2052 8.26481 57.6816 6.72562 56.6345C5.18643 55.5256 4.41681 53.7083 4.41681 51.1826C4.41681 49.6425 4.68451 47.887 5.21989 45.9157C5.82218 43.8827 6.4914 41.8498 7.22753 39.8171C8.03059 37.7842 8.83364 35.8437 9.6367 33.9957C10.4398 32.1476 11.109 30.5767 11.6443 29.2831H17.065ZM20.9799 6.92152C21.783 5.07346 22.7868 3.87221 23.9913 3.3178C25.2629 2.76338 26.6013 2.45537 28.0067 2.39376V18.472C28.0067 22.1064 27.1702 24.7246 25.4972 26.3263C23.824 27.9278 21.0133 28.7286 17.065 28.7286H11.8451C12.8489 26.3263 13.8528 23.9237 14.8566 21.5212C15.8604 19.0572 16.7973 16.8087 17.6673 14.7758C18.5372 12.7429 19.24 11.0181 19.7753 9.60122C20.3777 8.18437 20.7791 7.29114 20.9799 6.92152ZM46.0756 39.7247C46.2093 40.1559 46.3432 40.6795 46.4769 41.2956C46.6108 41.9114 46.6778 42.4967 46.6778 43.0511C46.7448 43.6055 46.7112 44.1292 46.5775 44.622C46.5105 45.0532 46.3096 45.3612 45.975 45.546C45.8413 45.6076 45.607 45.6384 45.2724 45.6384C44.6032 45.6384 43.8001 45.5152 42.8633 45.2688C41.9932 44.9608 40.7887 44.8068 39.2495 44.8068C37.3756 44.8068 35.5687 45.1764 33.8288 45.9157C32.0888 46.5933 30.3489 47.4557 28.6089 48.503V39.2627C28.6089 35.6897 29.412 33.1333 31.0181 31.5932C32.6912 30.0531 35.5019 29.2831 39.4502 29.2831H42.9636C43.4989 31.008 44.0008 32.7637 44.4693 34.55C45.0048 36.2749 45.5401 37.9998 46.0756 39.7247ZM39.4502 28.7286C35.6357 28.7286 32.8585 27.897 31.1186 26.2339C29.4454 24.5706 28.6089 21.9832 28.6089 18.472V2.39376C30.9513 2.45537 32.6912 2.91738 33.8288 3.77981C34.9665 4.64224 35.7696 5.81269 36.2381 7.29114C36.9741 9.632 37.9111 12.6813 39.0488 16.4391C40.1863 20.1967 41.4244 24.2933 42.7628 28.7286H39.4502Z" fill="black"/>
</g>
</g>
</g>
</g>
<defs>
<clipPath id="clip0_1_204">
<rect width="70.5688" height="67.7315" fill="white" transform="translate(0 0.268494)"/>
</clipPath>
</defs>
</svg>
