<svg width="139" height="41" viewBox="0 0 139 41" fill="none" xmlns="http://www.w3.org/2000/svg">
<path d="M0 5.46667C0 2.44751 2.45978 0 5.49407 0H133.506C136.54 0 139 2.44751 139 5.46667V35.5333C139 38.5526 136.54 41 133.506 41H5.49407C2.45978 41 0 38.5526 0 35.5333V5.46667Z" fill="black"/>
<path fill-rule="evenodd" clip-rule="evenodd" d="M0 35.5333V5.46667C0 2.44751 2.45978 0 5.49407 0H133.506C136.54 0 139 2.44751 139 5.46667V35.5333C139 38.5526 136.54 41 133.506 41H5.49407C2.45978 41 0 38.5526 0 35.5333ZM0.824111 35.5333V5.46667C0.824111 2.90039 2.91493 0.82 5.49407 0.82H133.506C136.085 0.82 138.176 2.90039 138.176 5.46667V35.5333C138.176 38.0997 136.085 40.18 133.506 40.18H5.49407C2.91493 40.18 0.824111 38.0997 0.824111 35.5333Z" fill="white" fill-opacity="0.3"/>
<path d="M31.4111 21.3348C31.3968 18.9319 32.491 17.1208 34.7007 15.7854C33.4648 14.0237 31.5952 13.0548 29.1305 12.868C26.7969 12.6848 24.2438 14.221 23.309 14.221C22.321 14.221 20.0618 12.9314 18.2841 12.9314C14.6156 12.9878 10.7168 15.8418 10.7168 21.6484C10.7168 23.3643 11.032 25.1366 11.6623 26.9618C12.5051 29.3648 15.5433 35.2524 18.7126 35.1573C20.3699 35.1185 21.542 33.9874 23.6985 33.9874C25.7913 33.9874 26.8748 35.1573 28.7234 35.1573C31.921 35.1114 34.6688 29.7595 35.469 27.3492C31.1809 25.3375 31.4111 21.4582 31.4111 21.3348ZM27.6892 10.5884C29.4846 8.46724 29.3217 6.53642 29.2687 5.84229C27.6823 5.93391 25.8479 6.91692 24.8033 8.12547C23.6525 9.4221 22.9761 11.0253 23.1213 12.8328C24.8352 12.9632 26.4003 12.0858 27.6892 10.5884Z" fill="white"/>
<path d="M50.7525 29.6699H48.9337L47.9374 26.5405H44.4747L43.5256 29.6699H41.7549L45.1857 19.0161H47.3047L50.7525 29.6699ZM47.6371 25.2276L46.7361 22.4457C46.641 22.1615 46.4622 21.4922 46.1988 20.4387H46.1669C46.062 20.8918 45.893 21.5611 45.6606 22.4457L44.7758 25.2276H47.6371Z" fill="white"/>
<path d="M59.5753 25.7344C59.5753 27.0409 59.2223 28.0736 58.5158 28.8318C57.8831 29.5067 57.0975 29.8437 56.1597 29.8437C55.1474 29.8437 54.4202 29.4802 53.9774 28.7534H53.9453V32.8001H52.238V24.5168C52.238 23.6954 52.2163 22.8524 52.1748 21.9878H53.6763L53.7717 23.2054H53.8035C54.373 22.288 55.2372 21.8301 56.3967 21.8301C57.3032 21.8301 58.0601 22.1879 58.6655 22.9044C59.2726 23.6217 59.5753 24.5648 59.5753 25.7344ZM57.8359 25.7968C57.8359 25.0491 57.6678 24.4327 57.3299 23.9475C56.9607 23.4416 56.4648 23.1886 55.8435 23.1886C55.4221 23.1886 55.0394 23.3295 54.6974 23.6073C54.3546 23.8875 54.1304 24.2534 54.0255 24.7065C53.9727 24.9178 53.9461 25.0908 53.9461 25.2268V26.5077C53.9461 27.0665 54.1175 27.5382 54.4603 27.923C54.8032 28.3081 55.2485 28.5003 55.7962 28.5003C56.4393 28.5003 56.9398 28.2521 57.2977 27.7574C57.6565 27.2618 57.8359 26.6086 57.8359 25.7968Z" fill="white"/>
<path d="M68.4146 25.7344C68.4146 27.0409 68.0613 28.0736 67.3543 28.8318C66.7224 29.5067 65.9368 29.8437 64.9989 29.8437C63.9867 29.8437 63.2595 29.4802 62.8175 28.7534H62.7854V32.8001H61.0781V24.5168C61.0781 23.6954 61.0564 22.8524 61.0146 21.9878H62.5165L62.6115 23.2054H62.6436C63.2123 22.288 64.0765 21.8301 65.2368 21.8301C66.1425 21.8301 66.8993 22.1879 67.5064 22.9044C68.1111 23.6217 68.4146 24.5648 68.4146 25.7344ZM66.6752 25.7968C66.6752 25.0491 66.5062 24.4327 66.1684 23.9475C65.7992 23.4416 65.305 23.1886 64.6828 23.1886C64.2605 23.1886 63.8787 23.3295 63.5359 23.6073C63.193 23.8875 62.9697 24.2534 62.8648 24.7065C62.8126 24.9178 62.7854 25.0908 62.7854 25.2268V26.5077C62.7854 27.0665 62.9568 27.5382 63.298 27.923C63.6408 28.3073 64.0861 28.5003 64.6355 28.5003C65.2786 28.5003 65.7791 28.2521 66.137 27.7574C66.4958 27.2618 66.6752 26.6086 66.6752 25.7968Z" fill="white"/>
<path d="M78.2974 26.6821C78.2974 27.5882 77.9826 28.3257 77.3508 28.8947C76.6566 29.5169 75.6899 29.8274 74.4477 29.8274C73.3008 29.8274 72.3814 29.6065 71.6855 29.1637L72.0811 27.7413C72.8308 28.1945 73.6532 28.4216 74.5493 28.4216C75.1924 28.4216 75.6929 28.2759 76.0525 27.9862C76.4104 27.6965 76.5893 27.3073 76.5893 26.8222C76.5893 26.3899 76.4418 26.0257 76.1462 25.7302C75.8523 25.4348 75.3614 25.1603 74.676 24.9065C72.8099 24.2108 71.8778 23.1917 71.8778 21.8516C71.8778 20.9757 72.2045 20.2576 72.8588 19.6988C73.5107 19.1393 74.3804 18.8599 75.4679 18.8599C76.4379 18.8599 77.2433 19.0288 77.8864 19.3658L77.4598 20.7572C76.859 20.4305 76.18 20.2672 75.4199 20.2672C74.8194 20.2672 74.3499 20.4153 74.0137 20.7099C73.7293 20.9733 73.5868 21.2944 73.5868 21.6746C73.5868 22.0957 73.7494 22.4439 74.076 22.7177C74.3603 22.9707 74.8771 23.2445 75.6264 23.5399C76.5434 23.909 77.217 24.3405 77.6502 24.8352C78.082 25.3284 78.2974 25.9456 78.2974 26.6821Z" fill="white"/>
<path d="M83.9428 23.2687H82.0608V26.9985C82.0608 27.9472 82.3924 28.4212 83.0572 28.4212C83.3624 28.4212 83.6154 28.3947 83.8156 28.3419L83.8629 29.6381C83.5264 29.7635 83.0836 29.8269 82.535 29.8269C81.8606 29.8269 81.3337 29.6211 80.9532 29.2106C80.5744 28.7989 80.384 28.1088 80.384 27.1394V23.2671H79.2627V21.9862H80.384V20.5797L82.0608 20.0737V21.9862H83.9428V23.2687Z" fill="white"/>
<path d="M92.4344 25.7653C92.4344 26.9461 92.0965 27.9156 91.4221 28.6738C90.715 29.4542 89.7763 29.8434 88.6064 29.8434C87.4787 29.8434 86.581 29.4695 85.9115 28.7217C85.2418 27.9741 84.9072 27.0302 84.9072 25.8926C84.9072 24.7022 85.2514 23.7271 85.9426 22.969C86.6321 22.21 87.5628 21.8306 88.7327 21.8306C89.8604 21.8306 90.7678 22.2044 91.4526 22.953C92.1078 23.6791 92.4344 24.6165 92.4344 25.7653ZM90.6628 25.8206C90.6628 25.112 90.5115 24.5044 90.2049 23.9977C89.8469 23.3845 89.3352 23.0786 88.672 23.0786C87.9856 23.0786 87.4642 23.3853 87.1062 23.9977C86.7997 24.5052 86.6483 25.1225 86.6483 25.8526C86.6483 26.5611 86.7997 27.1687 87.1062 27.6745C87.4754 28.2879 87.9913 28.5937 88.6567 28.5937C89.3088 28.5937 89.8203 28.2816 90.1895 27.6587C90.5043 27.1423 90.6628 26.5282 90.6628 25.8206Z" fill="white"/>
<path d="M97.984 23.4888C97.8151 23.4576 97.6349 23.4416 97.4459 23.4416C96.8451 23.4416 96.3809 23.6682 96.054 24.1221C95.7697 24.5224 95.6271 25.0283 95.6271 25.6391V29.6699H93.9206L93.9366 24.4071C93.9366 23.5217 93.9149 22.7155 93.8726 21.9886H95.3595L95.4222 23.4584H95.4694C95.6496 22.9533 95.9339 22.5466 96.3232 22.2416C96.7034 21.967 97.1143 21.8301 97.5572 21.8301C97.7151 21.8301 97.8574 21.8413 97.984 21.8613V23.4888Z" fill="white"/>
<path d="M105.62 25.4652C105.62 25.771 105.6 26.0288 105.557 26.2393H100.435C100.455 26.9982 100.703 27.5786 101.178 27.979C101.61 28.3368 102.168 28.5161 102.854 28.5161C103.612 28.5161 104.304 28.3953 104.926 28.1526L105.194 29.3375C104.467 29.6545 103.608 29.8123 102.617 29.8123C101.426 29.8123 100.49 29.4616 99.8097 28.761C99.1304 28.0605 98.79 27.1199 98.79 25.9399C98.79 24.7815 99.1065 23.8168 99.74 23.0475C100.403 22.2261 101.299 21.8154 102.427 21.8154C103.534 21.8154 104.373 22.2261 104.942 23.0475C105.393 23.6999 105.62 24.5069 105.62 25.4652ZM103.992 25.0225C104.003 24.5165 103.892 24.0794 103.66 23.7103C103.365 23.2356 102.911 22.9986 102.299 22.9986C101.741 22.9986 101.287 23.23 100.94 23.6943C100.656 24.0634 100.487 24.5061 100.435 25.0217H103.992V25.0225Z" fill="white"/>
<path d="M43.5145 12.2872H44.3943C45.2443 12.2872 45.7423 12.6674 45.7423 13.308V13.3165C45.7423 13.9102 45.2184 14.2988 44.4202 14.2988C43.6046 14.2988 43.0854 13.9785 43.0167 13.4105L43.0123 13.3763H42.0723L42.0767 13.4276C42.1409 14.444 43.051 15.1359 44.4202 15.1359C45.7464 15.1359 46.7252 14.3757 46.7252 13.3592V13.3507C46.7252 12.5221 46.2142 11.937 45.386 11.8345V11.8004C46.0728 11.6424 46.5362 11.0701 46.5362 10.3867V10.3782C46.5362 9.42579 45.6863 8.76807 44.4416 8.76807C43.1453 8.76807 42.2997 9.40441 42.2354 10.4465L42.231 10.5063H43.154L43.1582 10.4465C43.2312 9.91691 43.682 9.60515 44.4116 9.60515C45.1542 9.60515 45.5835 9.93402 45.5835 10.4807V10.4892C45.5835 11.0786 45.1069 11.4843 44.3688 11.4843H43.5145V12.2872Z" fill="white"/>
<path d="M49.8339 15.1146C50.4347 15.1146 50.9541 14.8071 51.2159 14.3244H51.2374V15.0334H52.1645V11.9371C52.1645 11.0359 51.4648 10.4551 50.3619 10.4551C49.2502 10.4551 48.5763 11.0487 48.5118 11.8217L48.5076 11.8687H49.3831L49.3916 11.8303C49.4691 11.4716 49.7996 11.2196 50.3361 11.2196C50.9113 11.2196 51.2374 11.5185 51.2374 12.0139V12.3513L50.0056 12.4239C48.9367 12.488 48.3271 12.9663 48.3271 13.7479V13.7564C48.3271 14.5636 48.9323 15.1146 49.8339 15.1146ZM49.2631 13.7351V13.7265C49.2631 13.3464 49.5721 13.103 50.13 13.0688L51.2374 13.0005V13.3507C51.2374 13.9358 50.7396 14.3757 50.0872 14.3757C49.5891 14.3757 49.2631 14.128 49.2631 13.7351Z" fill="white"/>
<path d="M57.1019 11.2751V10.5405H54.1104V15.0334H55.0375V11.2751H57.1019Z" fill="white"/>
<path d="M58.8457 16.5282H59.7728V14.2775H59.7943C60.0604 14.7985 60.5799 15.1231 61.2194 15.1231C62.3526 15.1231 63.0951 14.2219 63.0951 12.7912V12.7869C63.0951 11.3519 62.3567 10.4551 61.2065 10.4551C60.5626 10.4551 60.0648 10.7797 59.7943 11.3135H59.7728V10.5405H58.8457V16.5282ZM60.9661 14.3287C60.2665 14.3287 59.7687 13.7223 59.7687 12.7912V12.7869C59.7687 11.8516 60.2621 11.2452 60.9661 11.2452C61.6958 11.2452 62.1507 11.8303 62.1507 12.7869V12.7912C62.1507 13.7393 61.6958 14.3287 60.9661 14.3287Z" fill="white"/>
<path d="M65.2726 16.5325C66.1569 16.5325 66.6291 16.1738 66.964 15.2427L68.6465 10.5405H67.6678L66.5302 14.1964H66.5003L65.3627 10.5405H64.3584L66.0025 15.0377L65.925 15.2513C65.7706 15.6869 65.5303 15.8022 65.0924 15.8022C64.968 15.8022 64.8606 15.7851 64.7878 15.768V16.4898C64.8993 16.5111 65.0924 16.5325 65.2726 16.5325Z" fill="white"/>
<path d="M71.8325 15.1231C72.9398 15.1231 73.6738 14.5636 73.6738 13.7266V13.718C73.6738 13.1927 73.3475 12.8339 72.7508 12.7143V12.6802C73.236 12.5691 73.5494 12.189 73.5494 11.7064V11.6979C73.5494 10.9291 72.914 10.4551 71.8753 10.4551C70.8581 10.4551 70.1928 10.9334 70.0854 11.7321L70.0813 11.7662H70.9653L70.9697 11.7363C71.0383 11.3947 71.3773 11.1854 71.8624 11.1854C72.3517 11.1854 72.6437 11.4117 72.6437 11.7961V11.8047C72.6437 12.2061 72.3646 12.4111 71.8196 12.4111H71.1713V13.0816H71.8237C72.4506 13.0816 72.7508 13.2866 72.7508 13.718V13.7266C72.7508 14.1366 72.3989 14.3885 71.8281 14.3885C71.3174 14.3885 70.9826 14.1921 70.8795 13.8291L70.8666 13.7863H69.9565L69.9609 13.8248C70.051 14.6191 70.7765 15.1231 71.8325 15.1231Z" fill="white"/>
<path d="M75.4561 15.0334H76.3703L78.4432 11.8773H78.4819V15.0334H79.4046V10.5405H78.4904L76.4175 13.6839H76.3744V10.5405H75.4561V15.0334Z" fill="white"/>
<path d="M84.8014 10.5405H81.0459V11.2751H82.4579V15.0334H83.3894V11.2751H84.8014V10.5405Z" fill="white"/>
<path d="M88.2881 15.1231C89.3828 15.1231 90.0825 14.4739 90.224 13.7607L90.2369 13.7137H89.3526L89.34 13.7479C89.224 14.0853 88.8592 14.3672 88.3098 14.3672C87.5714 14.3672 87.1036 13.8717 87.0863 13.0218H90.2841V12.7101C90.2841 11.3605 89.5073 10.4551 88.2412 10.4551C86.9748 10.4551 86.1592 11.3947 86.1592 12.7998V12.804C86.1592 14.2219 86.9619 15.1231 88.2881 15.1231ZM88.2453 11.211C88.8504 11.211 89.2927 11.5911 89.3655 12.3684H87.0992C87.1852 11.6167 87.6445 11.211 88.2453 11.211Z" fill="white"/>
<path d="M94.8018 15.0334H96.8793C97.8578 15.0334 98.4674 14.5295 98.4674 13.7436V13.7351C98.4674 13.1842 98.0812 12.7827 97.4974 12.7058V12.6717C97.9309 12.5905 98.2658 12.1677 98.2658 11.7022V11.6936C98.2658 10.9804 97.7334 10.5405 96.8535 10.5405H94.8018V15.0334ZM95.7204 12.3941V11.2239H96.6604C97.1068 11.2239 97.3472 11.4246 97.3472 11.7961V11.8047C97.3472 12.2019 97.0895 12.3941 96.5659 12.3941H95.7204ZM95.7204 14.3501V13.0646H96.6002C97.2098 13.0646 97.5145 13.2653 97.5145 13.6967V13.7052C97.5145 14.1323 97.2312 14.3501 96.7077 14.3501H95.7204Z" fill="white"/>
</svg>
