<svg width="139" height="41" viewBox="0 0 139 41" fill="none" xmlns="http://www.w3.org/2000/svg">
<rect width="139" height="41" fill="#1E1E1E"/>
<g id="&#208;&#160;&#208;&#176;&#208;&#177;&#208;&#190;&#209;&#135;&#208;&#184;&#208;&#185; &#208;&#188;&#208;&#176;&#208;&#186;&#208;&#181;&#209;&#130; / &#208;&#152;&#209;&#130;&#208;&#181;&#209;&#128;&#208;&#176;&#209;&#134;&#208;&#184;&#209;&#143; 2" clip-path="url(#clip0_0_1)">
<rect width="1440" height="6864" transform="translate(-573 -6796)" fill="white"/>
<rect id="&#208;&#159;&#208;&#190;&#208;&#180;&#208;&#187;&#208;&#190;&#208;&#182;&#208;&#186;&#208;&#176; &#208;&#191;&#208;&#190;&#208;&#180; &#209;&#129;&#209;&#129;&#209;&#139;&#208;&#187;&#208;&#186;&#208;&#184;" x="-573" y="-28" width="1440" height="96" fill="black"/>
<g id="&#208;&#161;&#209;&#139;&#208;&#187;&#208;&#186;&#208;&#184; &#208;&#189;&#208;&#176; &#209;&#131;&#209;&#129;&#209;&#130;&#208;&#176;&#208;&#189;&#208;&#190;&#208;&#178;&#208;&#186;&#209;&#131; &#208;&#191;&#209;&#128;&#208;&#184;&#208;&#187;&#208;&#190;&#208;&#182;&#208;&#181;&#208;&#189;&#208;&#184;&#208;&#185;">
<g id="Group 18">
<path id="Vector" d="M0 5.46667C0 2.44751 2.45978 0 5.49407 0H133.506C136.54 0 139 2.44751 139 5.46667V35.5333C139 38.5526 136.54 41 133.506 41H5.49407C2.45978 41 0 38.5526 0 35.5333V5.46667Z" fill="black"/>
<path id="Vector_2" fill-rule="evenodd" clip-rule="evenodd" d="M0 35.5333V5.46667C0 2.44751 2.45978 0 5.49407 0H133.506C136.54 0 139 2.44751 139 5.46667V35.5333C139 38.5526 136.54 41 133.506 41H5.49407C2.45978 41 0 38.5526 0 35.5333ZM0.824111 35.5333V5.46667C0.824111 2.90039 2.91493 0.82 5.49407 0.82H133.506C136.085 0.82 138.176 2.90039 138.176 5.46667V35.5333C138.176 38.0997 136.085 40.18 133.506 40.18H5.49407C2.91493 40.18 0.824111 38.0997 0.824111 35.5333Z" fill="white" fill-opacity="0.3"/>
<path id="Vector_3" d="M70.4303 22.274C67.9566 22.274 65.9128 24.1961 65.9128 26.8316C65.9128 29.4456 67.9352 31.3893 70.4303 31.3893C72.9254 31.3893 74.9475 29.4669 74.9475 26.8316C74.9475 24.1961 72.9254 22.274 70.4303 22.274ZM70.4303 29.5757C69.0747 29.5757 67.8923 28.4304 67.8923 26.8113C67.8923 25.1696 69.0755 24.0469 70.4303 24.0469C71.7849 24.0469 72.968 25.1696 72.968 26.8113C72.968 28.4304 71.7849 29.5757 70.4303 29.5757ZM60.5995 22.274C58.1044 22.274 56.082 24.1961 56.082 26.8316C56.082 29.4456 58.1044 31.3893 60.5995 31.3893C63.0946 31.3893 65.117 29.4669 65.117 26.8316C65.117 24.1961 63.0949 22.274 60.5995 22.274ZM60.5995 29.5757C59.2438 29.5757 58.0618 28.4304 58.0618 26.8113C58.0618 25.1696 59.2449 24.0469 60.5995 24.0469C61.9552 24.0469 63.1375 25.1696 63.1375 26.8113C63.1375 28.4304 61.9752 29.5757 60.5995 29.5757ZM48.9188 23.6782V25.6003H53.4789C53.3493 26.6802 52.9847 27.4795 52.4466 28.0199C51.7799 28.6893 50.7473 29.424 48.9188 29.424C46.1004 29.424 43.9286 27.1346 43.9286 24.3047C43.9286 21.4748 46.1015 19.1421 48.9188 19.1421C50.4456 19.1421 51.5434 19.7471 52.3609 20.525L53.7154 19.1636C52.5749 18.0624 51.0481 17.2202 48.9188 17.2202C45.0678 17.2202 41.8408 20.3949 41.8408 24.2617C41.8408 28.1287 45.0678 31.3034 48.9188 31.3034C51.0052 31.3034 52.5545 30.6125 53.802 29.3158C55.0711 28.0415 55.4581 26.2481 55.4581 24.8011C55.4581 24.3477 55.4156 23.9372 55.3505 23.5914L48.9188 23.6782ZM96.717 25.1684C96.3511 24.1531 95.1902 22.274 92.8659 22.274C90.5422 22.274 88.6281 24.1103 88.6281 26.8316C88.6281 29.38 90.5422 31.3893 93.0813 31.3893C95.1462 31.3893 96.3296 30.115 96.8238 29.38L95.2973 28.3432C94.7803 29.0998 94.0925 29.5959 93.0813 29.5959C92.0701 29.5959 91.3608 29.1425 90.9081 28.2134L96.9098 25.6864L96.717 25.1684ZM90.6076 26.7027C90.5647 24.9525 91.9632 24.0457 92.9516 24.0457C93.748 24.0457 94.3933 24.4345 94.6295 25.018L90.6076 26.7027ZM85.7242 31.0872H87.7037V17.7379H85.7242V31.0872ZM82.4983 23.2894H82.434C81.9824 22.7489 81.1438 22.274 80.0675 22.274C77.8086 22.274 75.7651 24.2832 75.7651 26.8316C75.7651 29.38 77.83 31.3679 80.0675 31.3679C81.1427 31.3679 81.9816 30.8926 82.434 30.3309H82.4983V30.9787C82.4983 32.7291 81.5728 33.6571 80.0889 33.6571C78.884 33.6571 78.1308 32.7718 77.83 32.0371L76.1098 32.7718C76.6037 33.9816 77.9168 35.4718 80.0889 35.4718C82.4118 35.4718 84.3696 34.0893 84.3696 30.7415V22.5545H82.4983V23.2894ZM80.2397 29.5757C78.884 29.5757 77.7446 28.4304 77.7446 26.8328C77.7446 25.2351 78.8851 24.0682 80.2397 24.0682C81.5739 24.0682 82.6491 25.2351 82.6491 26.8328C82.6483 28.4088 81.5728 29.5757 80.2397 29.5757ZM105.945 17.7382H101.213V31.0872H103.192V26.0322H105.945C108.14 26.0322 110.291 24.4334 110.291 21.8852C110.291 19.3368 108.14 17.7382 105.945 17.7382ZM106.009 24.1758H103.213V19.5955H106.009C107.472 19.5955 108.333 20.8268 108.333 21.8849C108.312 22.9218 107.473 24.1758 106.009 24.1758ZM118.186 22.2525C116.766 22.2525 115.282 22.879 114.679 24.3047L116.422 25.0395C116.81 24.3047 117.498 24.0672 118.23 24.0672C119.262 24.0672 120.295 24.6935 120.316 25.7947V25.9248C119.95 25.7089 119.198 25.4059 118.251 25.4059C116.358 25.4059 114.443 26.4643 114.443 28.4088C114.443 30.2019 115.992 31.3464 117.713 31.3464C119.047 31.3464 119.778 30.7415 120.229 30.0289H120.294V31.0659H122.208V25.9461C122.186 23.5921 120.444 22.2525 118.186 22.2525ZM117.949 29.5541C117.304 29.5541 116.4 29.2297 116.4 28.4313C116.4 27.3945 117.518 27.0057 118.486 27.0057C119.347 27.0057 119.755 27.2001 120.294 27.459C120.143 28.6904 119.089 29.5541 117.949 29.5541ZM129.113 22.5557L126.854 28.3227H126.79L124.446 22.5555H122.317L125.844 30.6338L123.843 35.1484H125.908L131.307 22.5555H129.113L129.113 22.5557ZM111.388 31.0872H113.368V17.7379H111.388V31.0872Z" fill="white"/>
<path id="Vector_4" d="M47.8215 11.4812V13.4634H46.9984V12.3001H43.2141V13.4634H42.3911V11.4812H43.0065C43.2117 11.1955 43.363 10.7847 43.4603 10.249C43.5578 9.70816 43.6064 9.12142 43.6064 8.48874V6.82031H47.2138V11.4812H47.8215ZM46.3523 11.4812V7.63922H44.4602V8.63415C44.4602 9.20561 44.414 9.73623 44.3217 10.226C44.2346 10.7159 44.1014 11.1342 43.9218 11.4812H46.3523Z" fill="white"/>
<path id="Vector_5" d="M51.3141 12.4224C50.7806 12.4224 50.296 12.2975 49.8603 12.0474C49.4244 11.7923 49.0807 11.4454 48.8294 11.0066C48.5832 10.5678 48.4604 10.0856 48.4604 9.5601C48.4604 9.03456 48.5832 8.55497 48.8294 8.12127C49.0807 7.68249 49.4244 7.33552 49.8603 7.08042C50.296 6.82532 50.7806 6.69775 51.3141 6.69775C51.8473 6.69775 52.3294 6.82532 52.7601 7.08042C53.1958 7.33552 53.5394 7.68249 53.7905 8.12127C54.0419 8.55497 54.1677 9.03456 54.1677 9.5601C54.1677 10.0856 54.0419 10.5678 53.7905 11.0066C53.5444 11.4454 53.2035 11.7923 52.7678 12.0474C52.3318 12.2975 51.8473 12.4224 51.3141 12.4224ZM51.3141 11.6035C51.6781 11.6035 52.0113 11.5168 52.314 11.3433C52.6164 11.1698 52.8549 10.93 53.0293 10.6239C53.2035 10.3127 53.2906 9.95807 53.2906 9.5601C53.2906 9.16213 53.2035 8.81007 53.0293 8.50394C52.8549 8.1927 52.6164 7.95036 52.314 7.77687C52.0113 7.60339 51.6781 7.51666 51.3141 7.51666C50.9498 7.51666 50.6166 7.60339 50.3139 7.77687C50.0114 7.95036 49.7705 8.1927 49.5909 8.50394C49.4167 8.81007 49.3293 9.16213 49.3293 9.5601C49.3293 9.95807 49.4167 10.3127 49.5909 10.6239C49.7705 10.93 50.0114 11.1698 50.3139 11.3433C50.6166 11.5168 50.9498 11.6035 51.3141 11.6035Z" fill="white"/>
<path id="Vector_6" d="M57.6765 12.4224C57.143 12.4224 56.656 12.2975 56.2151 12.0474C55.7739 11.7974 55.4278 11.453 55.1767 11.0142C54.9253 10.5755 54.7998 10.0907 54.7998 9.5601C54.7998 9.02948 54.9253 8.54475 55.1767 8.10597C55.4278 7.66718 55.7739 7.32279 56.2151 7.07277C56.656 6.82275 57.143 6.69775 57.6765 6.69775C58.0919 6.69775 58.4687 6.77429 58.8072 6.92735C59.1506 7.08042 59.4533 7.30237 59.7148 7.59319L59.0995 8.1825C58.9096 7.95801 58.6995 7.79218 58.4687 7.68503C58.238 7.57278 57.9737 7.51666 57.6765 7.51666C57.3073 7.51666 56.9689 7.60085 56.6612 7.76922C56.3585 7.93759 56.1176 8.17739 55.9382 8.48863C55.7585 8.79477 55.669 9.15193 55.669 9.5601C55.669 9.96827 55.7585 10.328 55.9382 10.6392C56.1176 10.9454 56.3585 11.1826 56.6612 11.351C56.9689 11.5194 57.3073 11.6035 57.6765 11.6035C58.2918 11.6035 58.8149 11.3484 59.2456 10.8382L59.8686 11.4352C59.6019 11.7464 59.2813 11.9887 58.9072 12.1622C58.5328 12.3357 58.1226 12.4224 57.6765 12.4224Z" fill="white"/>
<path id="Vector_7" d="M61.9456 7.63922H60.4072V6.82031H64.3454V7.63922H62.807V12.3001H61.9456V7.63922Z" fill="white"/>
<path id="Vector_8" d="M65.7717 12.4226C65.5818 12.4226 65.4203 12.3894 65.2871 12.3231V11.4888C65.4563 11.5807 65.6101 11.6266 65.7486 11.6266C65.887 11.6266 65.9972 11.6011 66.0793 11.5501C66.1615 11.494 66.2356 11.3919 66.3024 11.2439L66.4947 10.846L64.6641 6.82031H65.6255L66.91 9.85869H66.9562L68.2484 6.82031H69.2099L67.1023 11.4276C66.9485 11.7695 66.7614 12.022 66.5408 12.1853C66.3255 12.3435 66.0692 12.4226 65.7717 12.4226Z" fill="white"/>
<path id="Vector_9" d="M69.957 6.82031H74.0567V12.3001H73.1952V7.63922H70.8185V12.3001H69.957V6.82031Z" fill="white"/>
<path id="Vector_10" d="M75.3125 6.82031H76.174V9.09335H78.7276V6.82031H79.5814V12.3001H78.7276V9.90461H76.174V12.3001H75.3125V6.82031Z" fill="white"/>
<path id="Vector_11" d="M83.3429 12.4224C82.8097 12.4224 82.3251 12.2975 81.8891 12.0474C81.4535 11.7923 81.1098 11.4454 80.8585 11.0066C80.6123 10.5678 80.4893 10.0856 80.4893 9.5601C80.4893 9.03456 80.6123 8.55497 80.8585 8.12127C81.1098 7.68249 81.4535 7.33552 81.8891 7.08042C82.3251 6.82532 82.8097 6.69775 83.3429 6.69775C83.8764 6.69775 84.3582 6.82532 84.7889 7.08042C85.2249 7.33552 85.5685 7.68249 85.8196 8.12127C86.071 8.55497 86.1965 9.03456 86.1965 9.5601C86.1965 10.0856 86.071 10.5678 85.8196 11.0066C85.5735 11.4454 85.2326 11.7923 84.7966 12.0474C84.3609 12.2975 83.8764 12.4224 83.3429 12.4224ZM83.3429 11.6035C83.7071 11.6035 84.0404 11.5168 84.3428 11.3433C84.6455 11.1698 84.884 10.93 85.0581 10.6239C85.2326 10.3127 85.3196 9.95807 85.3196 9.5601C85.3196 9.16213 85.2326 8.81007 85.0581 8.50394C84.884 8.1927 84.6455 7.95036 84.3428 7.77687C84.0404 7.60339 83.7071 7.51666 83.3429 7.51666C82.9789 7.51666 82.6457 7.60339 82.343 7.77687C82.0405 7.95036 81.7996 8.1927 81.6199 8.50394C81.4458 8.81007 81.3584 9.16213 81.3584 9.5601C81.3584 9.95807 81.4458 10.3127 81.6199 10.6239C81.7996 10.93 82.0405 11.1698 82.343 11.3433C82.6457 11.5168 82.9789 11.6035 83.3429 11.6035Z" fill="white"/>
<path id="Vector_12" d="M88.9834 6.82031H91.0525C91.3448 6.82031 91.614 6.88408 91.8601 7.01165C92.1115 7.13921 92.3114 7.31524 92.46 7.53973C92.6089 7.76421 92.6831 8.01169 92.6831 8.2821C92.6831 8.55251 92.6139 8.78722 92.4754 8.98621C92.3422 9.18519 92.1653 9.33572 91.9447 9.43775V9.48367C92.2216 9.58062 92.4447 9.74134 92.6139 9.96583C92.7883 10.1903 92.8754 10.4531 92.8754 10.7541C92.8754 11.0551 92.796 11.323 92.637 11.5577C92.4831 11.7924 92.273 11.9761 92.0062 12.1088C91.7447 12.2363 91.4577 12.3001 91.1448 12.3001H88.9834V6.82031ZM91.014 9.11631C91.2601 9.11631 91.4577 9.03978 91.6063 8.88671C91.7601 8.73365 91.837 8.55762 91.837 8.35863C91.837 8.15965 91.7629 7.98616 91.614 7.83821C91.4706 7.68514 91.2807 7.60861 91.0448 7.60861H89.8449V9.11631H91.014ZM91.1448 11.5042C91.4063 11.5042 91.614 11.4225 91.7678 11.2592C91.9269 11.096 92.0062 10.9072 92.0062 10.6929C92.0062 10.4735 91.9244 10.2847 91.7601 10.1266C91.6013 9.96329 91.386 9.88165 91.114 9.88165H89.8449V11.5042H91.1448Z" fill="white"/>
<path id="Vector_13" d="M29.3089 24.896C32.6001 23.0812 35.0952 21.6986 35.3103 21.5912C35.9982 21.2237 36.7088 20.2514 35.3103 19.4962C34.8587 19.2588 32.4279 17.9189 29.3089 16.1914L24.9854 20.5759L29.3089 24.896Z" fill="#FFD900"/>
<path id="Vector_14" d="M24.9849 20.5757L11.2178 34.5085C11.5407 34.5514 11.9055 34.4653 12.3359 34.2278C13.2389 33.7317 22.8116 28.482 29.3087 24.8968L24.9849 20.5757Z" fill="#F43249"/>
<path id="Vector_15" d="M24.9851 20.5757L29.3083 16.2125C29.3083 16.2125 13.3044 7.44244 12.3358 6.92494C11.9714 6.70734 11.5625 6.64302 11.1968 6.70734L24.9851 20.5757Z" fill="#00EE76"/>
<path id="Vector_16" d="M24.9852 20.5757L11.1966 6.70752C10.637 6.83738 10.1641 7.33381 10.1641 8.34869V32.8666C10.1641 33.7959 10.5301 34.4653 11.2179 34.5296L24.985 20.5754L24.9852 20.5757Z" fill="#00D3FF"/>
</g>
</g>
</g>
<defs>
<clipPath id="clip0_0_1">
<rect width="1440" height="6864" fill="white" transform="translate(-573 -6796)"/>
</clipPath>
</defs>
</svg>
